<?xml version="1.0" encoding="utf-8"?>
<!-- Generator: Adobe Illustrator 17.0.0, SVG Export Plug-In . SVG Version: 6.00 Build 0)  -->
<!DOCTYPE svg PUBLIC "-//W3C//DTD SVG 1.1//EN" "http://www.w3.org/Graphics/SVG/1.1/DTD/svg11.dtd">
<svg version="1.1" id="Layer_1" xmlns="http://www.w3.org/2000/svg" xmlns:xlink="http://www.w3.org/1999/xlink" x="0px" y="0px"
	 width="50px" height="50px" viewBox="0 0 50 50" enable-background="new 0 0 50 50" xml:space="preserve">
<g>
	<path fill="#EA0A8B" d="M20.564,33.818c-0.446,0.339-0.707,0.859-1.186,1.175c-0.37,0.244-0.539,0.155-0.631-0.242
		c-0.107-0.461-0.118-0.916-0.018-1.385c0.052-0.243,0.009-0.506,0.009-0.798c-0.565,0.11-0.953,0.469-1.381,0.73
		c-1.627,0.993-3.339,1.747-5.247,1.985c-1.622,0.202-3.452-0.314-3.996-1.741c-0.549-1.44,0.004-2.639,0.913-3.731
		c1.111-1.335,2.59-2.135,4.186-2.696c0.638-0.224,0.604-0.473,0.372-0.953c-0.92-1.914-1.657-3.898-2.095-5.978
		c-0.642-3.048-0.732-6.075,0.662-8.971c0.654-1.359,1.603-2.457,3.057-3.024c1.627-0.635,3.472-0.111,4.804,1.304
		c1.717,1.824,2.411,4.095,2.926,6.46c0.395,1.817,0.434,3.661,0.483,5.507c0.002,0.073-0.062,0.18,0.111,0.251
		c0.541-1.392,0.823-2.843,1.103-4.292c0.252-1.303,0.449-2.616,0.46-3.95c0.009-1.164,0.064-2.334-0.621-3.368
		c-0.117-0.177-0.163-0.348,0.03-0.488c0.264-0.193,0.403,0.055,0.498,0.209c0.617,0.996,0.832,2.116,0.876,3.262
		c0.084,2.164-0.365,4.262-0.861,6.35c-0.016,0.068-0.057,0.131-0.066,0.199c-0.033,0.274-0.158,0.637,0.079,0.789
		c0.311,0.199,0.552-0.126,0.756-0.341c1.48-1.558,2.984-3.09,4.828-4.231c0.979-0.605,2.016-1.063,3.181-1.159
		c0.257-0.021,0.578-0.047,0.596,0.307c0.018,0.343-0.302,0.275-0.52,0.284c-1.1,0.048-2.011,0.59-2.868,1.187
		c-2.311,1.609-4.29,3.579-6.066,5.758c-0.062,0.076-0.114,0.147-0.069,0.248c0.084,0.189-0.106,0.287-0.144,0.437
		c-0.229,2.808-1.301,5.356-2.411,7.895c-0.412,0.941-0.934,1.821-1.454,2.703C20.783,33.635,20.702,33.754,20.564,33.818z"/>
	<path fill="#651C47" d="M24.631,22.69c0.08-0.071,0.159-0.143,0.238-0.214c0.62-0.156,1.038-0.6,1.474-1.025
		c2.309-2.25,4.858-4.142,7.928-5.233c1.805-0.642,3.638-0.958,5.488-0.155c1.721,0.747,2.612,2.075,2.751,3.941
		c0.194,2.604-0.932,4.708-2.547,6.589c-2.692,3.136-6.186,5.049-10.025,6.406c-0.919,0.325-0.919,0.324-0.632,1.223
		c-0.055,0.051-0.12,0.074-0.195,0.069c-0.738-0.749-0.644-1.208,0.351-1.547c2.901-0.99,5.632-2.31,7.99-4.289
		c1.953-1.638,3.704-3.47,4.403-6.023c0.342-1.249,0.42-2.552-0.054-3.791c-0.792-2.07-2.908-2.759-4.966-2.582
		c-2.565,0.22-4.709,1.448-6.783,2.831c-1.307,0.871-2.524,1.858-3.586,3.024c-0.157,0.173-0.325,0.343-0.525,0.464
		c-0.474,0.285-0.918,0.599-1.242,1.059C24.486,23.204,24.579,22.945,24.631,22.69z"/>
	<path fill="#702650" d="M29.142,34.227c0.054-0.002,0.109-0.004,0.163-0.006c0.953,1.949,1.454,3.97,0.825,6.119
		c-0.784,2.68-3.33,3.437-5.477,1.647c-1.406-1.172-2.216-2.741-2.819-4.422c-0.437-1.218-0.797-2.463-1.192-3.697
		c-0.021-0.03-0.049-0.049-0.084-0.059c0,0,0.006,0.008,0.006,0.008c0.043-0.103,0.086-0.205,0.129-0.308
		c0.375-0.001,0.299,0.358,0.439,0.545c0.588,1.624,0.968,3.321,1.739,4.882c0.558,1.129,1.305,2.11,2.288,2.887
		c1.816,1.435,4.115,0.52,4.609-1.796c0.354-1.66,0.096-3.248-0.457-4.818C29.202,34.899,28.918,34.602,29.142,34.227z"/>
	<path fill="#EA0A8B" d="M20.558,33.81c0.047-0.003,0.076,0.017,0.085,0.06c-0.001-0.001-0.062,0-0.062,0L20.558,33.81z"/>
	<path fill="#860E52" d="M20.974,34.093c-0.201-0.142-0.035-0.462-0.281-0.582c1.28-2.24,2.36-4.57,3.106-7.043
		c0.327-1.083,0.695-2.163,0.715-3.315c0.003-0.163-0.006-0.329,0.117-0.462c0.067,0.236-0.078,0.516,0.148,0.72
		c0.274,0.281,0.17,0.609,0.106,0.925c-0.592,2.932-1.738,5.657-3.15,8.276C21.471,33.1,21.286,33.629,20.974,34.093z"/>
	<path fill="#EA0A8B" d="M20.974,34.093c-0.089-0.699,0.417-1.161,0.697-1.706c1.368-2.66,2.517-5.399,3.098-8.349
		c0.04-0.202,0.008-0.418,0.01-0.628c-0.034-0.41,0.079-0.677,0.525-0.837c0.486-0.174,0.834-0.588,1.197-0.954
		c2.06-2.078,4.412-3.739,7.098-4.908c1.656-0.721,3.375-1.018,5.186-0.742c1.739,0.265,3.264,1.93,3.45,3.664
		c0.292,2.723-0.792,4.922-2.502,6.881c-2.67,3.059-6.115,4.929-9.879,6.282c-0.088,0.032-0.178,0.058-0.265,0.089
		c-1.003,0.353-1.003,0.354-0.446,1.342c0.562,1.463,1.047,2.942,0.97,4.542c-0.036,0.749-0.139,1.481-0.461,2.172
		c-1.03,2.216-3.299,2.09-4.679,0.982c-1.669-1.34-2.533-3.185-3.156-5.171C21.538,35.865,21.255,34.979,20.974,34.093z"/>
	<path fill="#641F47" d="M28.388,26.066c0.004-1.428,0.717-2.45,1.559-3.365c1.308-1.422,2.884-2.428,4.837-2.738
		c0.997-0.158,1.929-0.052,2.61,0.788c0.612,0.754,0.521,1.574,0.198,2.444c-0.921,2.479-4.016,4.834-6.634,4.958
		C29.51,28.221,28.255,27.392,28.388,26.066z"/>
	<path fill="#FEFEFE" d="M31.023,27.878c-1.893,0.016-2.736-1.085-2.275-2.713c0.728-2.572,4.204-5.084,6.899-4.987
		c1.413,0.051,2.202,1.105,1.852,2.487c-0.354,1.399-1.243,2.443-2.312,3.339C33.928,27.06,32.503,27.769,31.023,27.878z"/>
</g>
</svg>
