<?xml version="1.0" encoding="utf-8"?>
<!-- Generator: Adobe Illustrator 17.0.0, SVG Export Plug-In . SVG Version: 6.00 Build 0)  -->
<!DOCTYPE svg PUBLIC "-//W3C//DTD SVG 1.1//EN" "http://www.w3.org/Graphics/SVG/1.1/DTD/svg11.dtd">
<svg version="1.1" id="Layer_1" xmlns="http://www.w3.org/2000/svg" xmlns:xlink="http://www.w3.org/1999/xlink" x="0px" y="0px"
	 width="44.583px" height="28px" viewBox="0 0 44.583 28" enable-background="new 0 0 44.583 28" xml:space="preserve">
<g>
	<path d="M22.418,13.718c-0.832-0.832-1.622-1.637-2.452-2.439c-0.163-0.157-0.478-0.299-0.722-0.448
		c-0.177,0.099-0.427,0.176-0.519,0.3c-0.468,0.632-1.986,0.789-3.492,0.343c-1.48-0.438-2.321-1.286-1.871-1.885
		c0.463-0.617,2.008-0.723,3.573-0.258c0.291,0.086,0.62,0.12,0.932,0.178c-0.045-0.16-0.004-0.326-0.15-0.478
		c-0.828-0.86-1.701-1.717-2.587-2.602c0.304-0.035,0.534-0.067,0.775-0.088c3.809-0.334,7.62-0.668,11.431-1
		c1.102-0.096,1.377-0.012,1.987,0.597c2.073,2.072,4.144,4.144,6.216,6.216c0.118,0.118,0.237,0.237,0.378,0.378
		c-1.381,0.121-2.707,0.237-3.893,0.341c-0.353-0.458-0.601-0.946-1.115-1.4c-0.54-0.478-1.489-0.818-2.518-1.029
		c-1.683-0.344-3.216-0.174-3.867,0.42c-0.743,0.677-0.225,1.454,1.699,2.521C24.986,13.493,23.762,13.6,22.418,13.718z"/>
	<path d="M24.975,16.277c-0.704-0.7-1.364-1.355-2.071-2.058c1.426-0.129,2.841-0.258,4.256-0.386
		c0.172-0.016,0.378-0.01,0.512-0.049c0.181-0.053,0.444-0.127,0.417-0.216c-0.026-0.085-0.358-0.23-0.591-0.298
		c-1.753-0.516-2.611-1.271-2.183-1.946c0.387-0.61,1.829-0.76,3.339-0.348c1.462,0.4,2.374,1.226,2.018,1.832
		c-0.04,0.068-0.146,0.122-0.15,0.195c-0.007,0.116-0.042,0.282,0.099,0.352c0.155,0.077,0.534,0.109,0.749,0.093
		c1.394-0.109,2.77-0.236,4.153-0.357c0.268-0.023,0.54-0.043,0.86-0.068c1.49,1.483,2.957,2.943,4.423,4.404
		c0.795,0.792,1.578,1.585,2.384,2.376c0.356,0.349,0.25,0.563-0.381,0.62c-4.161,0.376-8.328,0.746-12.547,1.123
		c-0.756-0.753-1.49-1.485-2.241-2.233c2.39,0.319,3.802,0.049,4.164-0.77c0.307-0.694-0.574-1.628-2.063-2.187
		C28.294,15.669,26.656,15.635,24.975,16.277z"/>
</g>
</svg>
