<?xml version="1.0" encoding="utf-8"?>
<!-- Generator: Adobe Illustrator 17.0.0, SVG Export Plug-In . SVG Version: 6.00 Build 0)  -->
<!DOCTYPE svg PUBLIC "-//W3C//DTD SVG 1.1//EN" "http://www.w3.org/Graphics/SVG/1.1/DTD/svg11.dtd">
<svg version="1.1" id="Layer_1" xmlns="http://www.w3.org/2000/svg" xmlns:xlink="http://www.w3.org/1999/xlink" x="0px" y="0px"
	 width="44.583px" height="28px" viewBox="0 0 44.583 28" enable-background="new 0 0 44.583 28" xml:space="preserve">
<g>
	<path d="M29.373,21.623c-2.789,0.244-5.457,0.478-8.125,0.711c-1.459,0.127-2.921,0.252-4.378,0.381
		c-0.618,0.055-1.132-0.049-1.493-0.41c-2.258-2.257-4.515-4.514-6.804-6.804c1.359-0.119,2.681-0.235,3.862-0.338
		c0.385,0.47,0.668,0.981,1.227,1.452c0.6,0.507,1.631,0.834,2.727,1.024c1.643,0.284,3.073,0.065,3.641-0.554
		c0.625-0.681,0.051-1.476-1.847-2.46c0.666-0.058,1.288-0.113,1.911-0.167c0.614-0.054,1.229-0.108,1.944-0.17
		c0.733,0.733,1.44,1.44,2.148,2.148c0.121,0.121,0.212,0.249,0.372,0.361c0.201,0.141,0.458,0.269,0.691,0.403
		c0.165-0.09,0.405-0.158,0.483-0.273c0.454-0.668,2.045-0.829,3.602-0.347c1.488,0.46,2.275,1.336,1.728,1.924
		c-0.523,0.563-2.023,0.638-3.518,0.192c-0.29-0.087-0.621-0.118-0.933-0.175c0.047,0.16,0.008,0.326,0.154,0.478
		C27.592,19.859,28.465,20.716,29.373,21.623z"/>
	<path d="M8.064,14.995c-0.17-0.17-0.301-0.301-0.432-0.432c-2.072-2.072-4.144-4.143-6.214-6.215
		C0.841,7.77,0.922,7.652,1.99,7.558C5.822,7.22,9.657,6.885,13.492,6.551c0.218-0.019,0.447-0.026,0.717-0.041
		c0.738,0.738,1.455,1.455,2.175,2.175c-2.572-0.237-3.819,0.016-4.109,0.83c-0.261,0.73,0.594,1.602,2.135,2.179
		c1.758,0.658,3.249,0.678,5.086,0.053c0.531,0.531,1.052,1.052,1.574,1.574c0.146,0.146,0.292,0.292,0.493,0.493
		c-1.348,0.118-2.649,0.232-3.95,0.346c-0.223,0.019-0.472,0.021-0.661,0.063c-0.239,0.054-0.429,0.141-0.641,0.214
		c0.256,0.117,0.49,0.265,0.77,0.345c1.589,0.457,2.517,1.32,2.052,1.938c-0.471,0.624-2.13,0.732-3.645,0.237
		c-1.379-0.451-2.084-1.243-1.671-1.841c0.09-0.13,0.041-0.3,0.056-0.451c-0.359-0.028-0.76-0.099-1.069-0.076
		C11.235,14.708,9.692,14.852,8.064,14.995z"/>
</g>
</svg>
