<?xml version="1.0" encoding="utf-8"?>
<!-- Generator: Adobe Illustrator 17.0.0, SVG Export Plug-In . SVG Version: 6.00 Build 0)  -->
<!DOCTYPE svg PUBLIC "-//W3C//DTD SVG 1.1//EN" "http://www.w3.org/Graphics/SVG/1.1/DTD/svg11.dtd">
<svg version="1.1" id="Layer_1" xmlns="http://www.w3.org/2000/svg" xmlns:xlink="http://www.w3.org/1999/xlink" x="0px" y="0px"
	 width="28px" height="28px" viewBox="0 0 28 28" enable-background="new 0 0 28 28" xml:space="preserve">
<g>
	<g>
		<path d="M13.261,14.272c-1.181,0-2.323-0.011-3.465,0.009c-0.224,0.004-0.445,0.127-0.668,0.195
			c0.109,0.196,0.181,0.428,0.333,0.582c0.772,0.782,0.804,1.971,0.049,2.723c-0.742,0.739-1.944,0.735-2.676-0.01
			c-0.753-0.767-0.715-1.94,0.071-2.721c0.146-0.145,0.228-0.355,0.339-0.535c-0.214-0.081-0.426-0.229-0.642-0.233
			c-1.218-0.023-2.437-0.011-3.694-0.011c-0.011-0.241-0.026-0.427-0.026-0.613c-0.001-2.943-0.002-5.885,0-8.828
			C2.883,3.979,3.024,3.843,3.89,3.843c2.943-0.001,5.885,0,8.828,0c0.168,0,0.336,0,0.537,0c0,1.066,0,2.091,0,3.006
			c-0.639-0.074-1.304-0.245-1.956-0.203C10.614,6.69,10.06,7.122,9.668,7.704c-0.642,0.951-0.595,2.16,0.107,3.045
			c0.8,1.008,1.874,1.193,3.487,0.584C13.261,12.288,13.261,13.234,13.261,14.272z"/>
		<path d="M24.381,14.947c0,2.154,0,4.214,0,6.274c0,1.127-0.004,2.253-0.002,3.38c0.001,0.478-0.193,0.769-0.706,0.769
			c-3.206,0.001-6.412,0-9.664,0c0-1.05,0-2.071,0-2.983c0.658,0.06,1.357,0.222,2.037,0.16c0.73-0.066,1.276-0.565,1.649-1.209
			c0.559-0.965,0.436-2.136-0.307-2.979c-0.818-0.927-1.921-1.084-3.424-0.435c0-0.514,0-0.995,0-1.476c0-0.475,0-0.949,0-1.501
			c1.042,0,2.046,0,3.05,0c0.172,0,0.349,0.026,0.514-0.008c0.207-0.042,0.404-0.134,0.605-0.205
			c-0.098-0.181-0.16-0.399-0.301-0.536c-0.821-0.797-0.849-2.041-0.042-2.804c0.771-0.73,2.005-0.666,2.71,0.139
			c0.675,0.771,0.602,1.89-0.151,2.634c-0.146,0.145-0.225,0.357-0.335,0.539c0.214,0.08,0.426,0.226,0.642,0.23
			C21.874,14.958,23.092,14.947,24.381,14.947z"/>
		<path d="M13.289,25.372c-0.242,0-0.428,0-0.614,0c-2.942,0-5.884,0.001-8.827-0.001c-0.821,0-0.966-0.142-0.966-0.967
			c-0.003-2.961-0.002-5.923-0.001-8.884c0-0.168,0.017-0.336,0.028-0.539c1.048,0,2.066,0,3.088,0
			c-0.603,1.658-0.415,2.723,0.614,3.508c0.923,0.704,2.16,0.716,3.09,0.031c1.061-0.781,1.257-1.826,0.65-3.574
			c0.754,0,1.495,0,2.236,0c0.207,0,0.415,0,0.7,0c0,1.041,0,2.046,0,3.051c0,0.172-0.027,0.349,0.007,0.514
			c0.043,0.208,0.135,0.405,0.206,0.607c0.182-0.099,0.401-0.16,0.538-0.302c0.778-0.804,2.012-0.85,2.765-0.081
			c0.762,0.778,0.713,2.033-0.107,2.757c-0.746,0.659-1.862,0.597-2.595-0.121c-0.159-0.156-0.387-0.242-0.583-0.36
			c-0.077,0.235-0.216,0.469-0.221,0.706C13.277,22.916,13.289,24.115,13.289,25.372z"/>
	</g>
</g>
</svg>
