<?xml version="1.0" encoding="utf-8"?>
<!-- Generator: Adobe Illustrator 17.0.0, SVG Export Plug-In . SVG Version: 6.00 Build 0)  -->
<!DOCTYPE svg PUBLIC "-//W3C//DTD SVG 1.1//EN" "http://www.w3.org/Graphics/SVG/1.1/DTD/svg11.dtd">
<svg version="1.1" id="Layer_1" xmlns="http://www.w3.org/2000/svg" xmlns:xlink="http://www.w3.org/1999/xlink" x="0px" y="0px"
	 width="44.583px" height="28px" viewBox="0 0 44.583 28" enable-background="new 0 0 44.583 28" xml:space="preserve">
<g>
	<path d="M8.064,14.995c-0.17-0.17-0.301-0.301-0.432-0.432c-2.072-2.072-4.144-4.143-6.214-6.215
		C0.841,7.77,0.922,7.652,1.99,7.558C5.822,7.22,9.657,6.885,13.492,6.551c0.218-0.019,0.447-0.026,0.717-0.041
		c0.738,0.738,1.455,1.455,2.175,2.175c-2.572-0.237-3.819,0.016-4.109,0.83c-0.261,0.73,0.594,1.602,2.135,2.179
		c1.758,0.658,3.249,0.678,5.086,0.053c0.531,0.531,1.052,1.052,1.574,1.574c0.146,0.146,0.292,0.292,0.493,0.493
		c-1.348,0.118-2.649,0.232-3.95,0.346c-0.223,0.019-0.472,0.021-0.661,0.063c-0.239,0.054-0.429,0.141-0.641,0.214
		c0.256,0.117,0.49,0.265,0.77,0.345c1.589,0.457,2.517,1.32,2.052,1.938c-0.471,0.624-2.13,0.732-3.645,0.237
		c-1.379-0.451-2.084-1.243-1.671-1.841c0.09-0.13,0.041-0.3,0.056-0.451c-0.359-0.028-0.76-0.099-1.069-0.076
		C11.235,14.708,9.692,14.852,8.064,14.995z"/>
	<path d="M24.975,16.277c-0.704-0.7-1.364-1.355-2.071-2.058c1.426-0.129,2.841-0.258,4.256-0.386
		c0.172-0.016,0.378-0.01,0.512-0.049c0.181-0.053,0.444-0.127,0.417-0.216c-0.026-0.085-0.358-0.23-0.591-0.298
		c-1.753-0.516-2.611-1.271-2.183-1.946c0.387-0.61,1.829-0.76,3.339-0.348c1.462,0.4,2.374,1.226,2.018,1.832
		c-0.04,0.068-0.146,0.122-0.15,0.195c-0.007,0.116-0.042,0.282,0.099,0.352c0.155,0.077,0.534,0.109,0.749,0.093
		c1.394-0.109,2.77-0.236,4.153-0.357c0.268-0.023,0.54-0.043,0.86-0.068c1.49,1.483,2.957,2.943,4.423,4.404
		c0.795,0.792,1.578,1.585,2.384,2.376c0.356,0.349,0.25,0.563-0.381,0.62c-4.161,0.376-8.328,0.746-12.547,1.123
		c-0.756-0.753-1.49-1.485-2.241-2.233c2.39,0.319,3.802,0.049,4.164-0.77c0.307-0.694-0.574-1.628-2.063-2.187
		C28.294,15.669,26.656,15.635,24.975,16.277z"/>
</g>
</svg>
