<?xml version="1.0" encoding="utf-8"?>
<!-- Generator: Adobe Illustrator 17.0.0, SVG Export Plug-In . SVG Version: 6.00 Build 0)  -->
<!DOCTYPE svg PUBLIC "-//W3C//DTD SVG 1.1//EN" "http://www.w3.org/Graphics/SVG/1.1/DTD/svg11.dtd">
<svg version="1.1" id="Layer_1" xmlns="http://www.w3.org/2000/svg" xmlns:xlink="http://www.w3.org/1999/xlink" x="0px" y="0px"
	 width="28px" height="28px" viewBox="0 0 28 28" enable-background="new 0 0 28 28" xml:space="preserve">
<g>
	<path d="M16.896,14.273c-0.994,0.003-1.926,0.006-2.924,0.01c-0.006-1.104-0.012-2.201-0.018-3.297
		c-0.001-0.134,0.03-0.276-0.006-0.398c-0.049-0.166-0.115-0.406-0.235-0.449c-0.114-0.042-0.341,0.091-0.457,0.208
		c-0.874,0.879-1.959,0.952-2.792,0.168c-0.753-0.708-0.784-1.839-0.073-2.618c0.689-0.755,1.872-0.815,2.623-0.132
		c0.084,0.077,0.143,0.191,0.238,0.245c0.15,0.087,0.364,0.23,0.471,0.18c0.119-0.055,0.204-0.301,0.207-0.466
		c0.017-1.067,0.008-2.135,0.008-3.203c0-0.207,0.006-0.414,0.01-0.659c2.107-0.005,4.182-0.01,6.257-0.014
		c1.125-0.002,2.251,0.006,3.376-0.006c0.496-0.005,0.764,0.222,0.766,0.711c0.016,3.222,0.023,6.444,0.033,9.707
		c-1.07,0.002-2.109,0.003-3.173,0.005c0.69-1.471,0.498-2.665-0.53-3.504c-0.871-0.711-2.192-0.749-3.093-0.088
		C16.481,11.484,16.25,12.624,16.896,14.273z"/>
</g>
</svg>
