<?xml version="1.0" encoding="utf-8"?>
<!-- Generator: Adobe Illustrator 17.0.0, SVG Export Plug-In . SVG Version: 6.00 Build 0)  -->
<!DOCTYPE svg PUBLIC "-//W3C//DTD SVG 1.1//EN" "http://www.w3.org/Graphics/SVG/1.1/DTD/svg11.dtd">
<svg version="1.1" id="Layer_1" xmlns="http://www.w3.org/2000/svg" xmlns:xlink="http://www.w3.org/1999/xlink" x="0px" y="0px"
	 width="44.583px" height="28px" viewBox="0 0 44.583 28" enable-background="new 0 0 44.583 28" xml:space="preserve">
<g>
	<path d="M22.418,13.718c-0.832-0.832-1.622-1.637-2.452-2.439c-0.163-0.157-0.478-0.299-0.722-0.448
		c-0.177,0.099-0.427,0.176-0.519,0.3c-0.468,0.632-1.986,0.789-3.492,0.343c-1.48-0.438-2.321-1.286-1.871-1.885
		c0.463-0.617,2.008-0.723,3.573-0.258c0.291,0.086,0.62,0.12,0.932,0.178c-0.045-0.16-0.004-0.326-0.15-0.478
		c-0.828-0.86-1.701-1.717-2.587-2.602c0.304-0.035,0.534-0.067,0.775-0.088c3.809-0.334,7.62-0.668,11.431-1
		c1.102-0.096,1.377-0.012,1.987,0.597c2.073,2.072,4.144,4.144,6.216,6.216c0.118,0.118,0.237,0.237,0.378,0.378
		c-1.381,0.121-2.707,0.237-3.893,0.341c-0.353-0.458-0.601-0.946-1.115-1.4c-0.54-0.478-1.489-0.818-2.518-1.029
		c-1.683-0.344-3.216-0.174-3.867,0.42c-0.743,0.677-0.225,1.454,1.699,2.521C24.986,13.493,23.762,13.6,22.418,13.718z"/>
	<path d="M29.373,21.623c-2.789,0.244-5.457,0.478-8.125,0.711c-1.459,0.127-2.921,0.252-4.378,0.381
		c-0.618,0.055-1.132-0.049-1.493-0.41c-2.258-2.257-4.515-4.514-6.804-6.804c1.359-0.119,2.681-0.235,3.862-0.338
		c0.385,0.47,0.668,0.981,1.227,1.452c0.6,0.507,1.631,0.834,2.727,1.024c1.643,0.284,3.073,0.065,3.641-0.554
		c0.625-0.681,0.051-1.476-1.847-2.46c0.666-0.058,1.288-0.113,1.911-0.167c0.614-0.054,1.229-0.108,1.944-0.17
		c0.733,0.733,1.44,1.44,2.148,2.148c0.121,0.121,0.212,0.249,0.372,0.361c0.201,0.141,0.458,0.269,0.691,0.403
		c0.165-0.09,0.405-0.158,0.483-0.273c0.454-0.668,2.045-0.829,3.602-0.347c1.488,0.46,2.275,1.336,1.728,1.924
		c-0.523,0.563-2.023,0.638-3.518,0.192c-0.29-0.087-0.621-0.118-0.933-0.175c0.047,0.16,0.008,0.326,0.154,0.478
		C27.592,19.859,28.465,20.716,29.373,21.623z"/>
</g>
</svg>
